<svg width="32" height="24" viewBox="0 0 32 24" fill="none" xmlns="http://www.w3.org/2000/svg">
<rect x="0.5" y="0.5" width="31" height="23" rx="2.5" fill="white" stroke="#3C787E"/>
<g filter="url(#filter0_i)">
<path fill-rule="evenodd" clip-rule="evenodd" d="M21.2377 14.0651C21.2659 14.1014 21.2942 14.1379 21.3225 14.1747C21.4876 14.3798 21.5276 14.625 21.3225 14.7901C20.8722 15.1587 20.0917 15.8558 19.6815 16.226C19.5597 16.3494 19.3545 16.3494 19.1895 16.266C18.5785 15.7267 18.3775 15.4089 18.0879 14.9513C18.047 14.8868 18.0044 14.8195 17.9587 14.7484C16.7696 15.9391 15.8674 16.3077 14.3481 16.3077C12.5436 16.3077 11.1494 15.2003 11.1494 12.9439C11.1494 11.1795 12.0917 9.99038 13.4459 9.41506C14.5949 8.92308 15.9892 8.92308 17.3033 8.92308V7.69231C17.3033 6.70833 16.4411 6.46154 15.9892 6.46154C15.1686 6.46154 14.4715 6.8718 14.3081 7.73397C14.2664 7.9391 14.143 8.14423 13.9379 8.14423L11.8465 7.89744C11.6815 7.85577 11.4763 7.73397 11.518 7.44551C12.01 4.90224 13.9795 4 16.236 4C17.3033 4 18.6558 4.28686 19.4763 5.06731C20.502 6.05128 20.502 7.32372 20.502 8.75962V12.1635C20.502 13.1183 20.8575 13.5759 21.2377 14.0651ZM15.2103 13.8462C17.2199 13.8462 17.2616 11.8365 17.2616 11.016V10.5641C15.7023 10.5641 13.9795 10.7692 13.9795 12.6154C13.9795 12.6154 13.9795 13.8462 15.2103 13.8462ZM16.0308 20C18.1238 20 20.7071 19.2212 22.4314 17.9487C22.7183 17.7436 22.4715 17.4151 22.1847 17.4968C20.2568 18.3173 17.877 18.7276 15.9891 18.7276C13.2007 18.7276 10.6975 17.9904 8.48273 16.718C8.31767 16.6362 8.15421 16.7997 8.31767 16.9648C10.3689 18.8109 13.0356 20 16.0308 20ZM21.3501 16.9811C21.9483 16.9262 22.8716 16.8416 23.0468 17.0866C23.252 17.375 22.8 18.5225 22.5949 19.016C22.5132 19.1378 22.6766 19.2212 22.8 19.0978C23.7023 18.359 23.9074 16.7596 23.7439 16.5128C23.5789 16.266 21.9795 16.0609 21.0356 16.7596C20.8722 16.8814 20.9122 17.0048 21.0773 17.0048C21.1552 16.999 21.2479 16.9905 21.3501 16.9811Z" fill="#FF0027"/>
</g>
<defs>
<filter id="filter0_i" x="8.25" y="4" width="15.5452" height="16" filterUnits="userSpaceOnUse" color-interpolation-filters="sRGB">
<feFlood flood-opacity="0" result="BackgroundImageFix"/>
<feBlend mode="normal" in="SourceGraphic" in2="BackgroundImageFix" result="shape"/>
<feColorMatrix in="SourceAlpha" type="matrix" values="0 0 0 0 0 0 0 0 0 0 0 0 0 0 0 0 0 0 127 0" result="hardAlpha"/>
<feOffset dx="100" dy="4"/>
<feGaussianBlur stdDeviation="2"/>
<feComposite in2="hardAlpha" operator="arithmetic" k2="-1" k3="1"/>
<feColorMatrix type="matrix" values="0 0 0 0 0.235294 0 0 0 0 0.470588 0 0 0 0 0.494118 0 0 0 1 0"/>
<feBlend mode="normal" in2="shape" result="effect1_innerShadow"/>
</filter>
</defs>
</svg>
