<svg width="20" height="20" viewBox="0 0 20 20" fill="none" xmlns="http://www.w3.org/2000/svg">
<path d="M15.7718 15.2051C14.2189 16.3185 11.8924 17 10.0074 17C7.30994 17 4.90833 15.9595 3.06094 14.3442C2.91373 14.1997 3.06094 14.0567 3.20959 14.1282C5.2042 15.2416 7.45859 15.8866 9.96989 15.8866C11.6701 15.8866 13.8134 15.5276 15.5496 14.8097C15.8079 14.7382 16.0302 15.0256 15.7718 15.2051ZM16.326 14.4508C16.1413 14.1997 15.0329 14.3442 14.5523 14.3792C14.4036 14.3792 14.3676 14.2712 14.5147 14.1646C15.3648 13.5533 16.8052 13.7327 16.9538 13.9487C17.1011 14.1646 16.9164 15.5641 16.1038 16.2106C15.9926 16.3185 15.8455 16.2456 15.919 16.139C16.1038 15.7072 16.5108 14.7031 16.326 14.4508Z" fill="#FF9900"/>
<path d="M14.7732 11.9028C14.4037 11.4359 14.0343 11.0404 14.0343 10.143V7.16466C14.0343 5.90825 14.0343 4.79487 13.1105 3.93389C12.3716 3.251 11.1535 3 10.1923 3C8.16015 3 6.38637 3.78946 5.94328 6.01482C5.90576 6.26722 6.0905 6.37379 6.23916 6.41025L8.12263 6.62619C8.30736 6.62619 8.4185 6.44671 8.45603 6.26722C8.60324 5.51282 9.23106 5.15384 9.97002 5.15384C10.377 5.15384 11.1535 5.36978 11.1535 6.23076V7.30769C9.97002 7.30769 8.71437 7.30769 7.67954 7.73817C6.45997 8.24157 5.61133 9.28205 5.61133 10.8259C5.61133 12.8002 6.86698 13.7692 8.4921 13.7692C9.86033 13.7692 10.6729 13.4467 11.7438 12.4048C12.0772 12.9082 12.2244 13.1943 12.8523 13.7327C13.0009 13.8057 13.1857 13.8057 13.2953 13.6977C13.6648 13.3738 14.3677 12.7638 14.7732 12.4413C14.958 12.2969 14.9219 12.0823 14.7732 11.9028ZM11.116 9.13899C11.116 9.85692 11.0784 11.6154 9.26858 11.6154C8.16015 11.6154 8.16015 10.5385 8.16015 10.5385C8.16015 8.92306 9.71167 8.74358 11.116 8.74358V9.13899Z" fill="black"/>
</svg>
