<svg width="20" height="20" viewBox="0 0 20 20" fill="none" xmlns="http://www.w3.org/2000/svg">
<g clip-path="url(#clip0)">
<path d="M7.28673 11.0339C7.28673 10.7834 7.08351 10.5804 6.83277 10.5804H5.24863C4.99818 10.5804 4.79492 10.7834 4.79492 11.0339V12.6178C4.79492 12.8687 4.99818 13.0718 5.24863 13.0718H6.83277C7.08351 13.0718 7.28673 12.8687 7.28673 12.6178V11.0339Z" fill="#4A5B6D"/>
<path d="M11.2465 11.0339C11.2465 10.7834 11.0432 10.5804 10.7929 10.5804H9.2086C8.95814 10.5804 8.75488 10.7834 8.75488 11.0339V12.6178C8.75488 12.8687 8.95814 13.0718 9.2086 13.0718H10.7929C11.0432 13.0718 11.2465 12.8687 11.2465 12.6178V11.0339Z" fill="#4A5B6D"/>
<path d="M15.2057 11.0339C15.2057 10.7834 15.0024 10.5804 14.752 10.5804H13.1678C12.9171 10.5804 12.7139 10.7834 12.7139 11.0339V12.6178C12.7139 12.8687 12.9171 13.0718 13.1678 13.0718H14.752C15.0024 13.0718 15.2057 12.8687 15.2057 12.6178V11.0339Z" fill="#4A5B6D"/>
<path d="M7.28673 14.9933C7.28673 14.7423 7.08351 14.5395 6.83277 14.5395H5.24863C4.99818 14.5395 4.79492 14.7423 4.79492 14.9933V16.5769C4.79492 16.8276 4.99818 17.0306 5.24863 17.0306H6.83277C7.08351 17.0306 7.28673 16.8276 7.28673 16.5769V14.9933Z" fill="#4A5B6D"/>
<path d="M11.2465 14.9933C11.2465 14.7423 11.0432 14.5395 10.7929 14.5395H9.2086C8.95814 14.5395 8.75488 14.7423 8.75488 14.9933V16.5769C8.75488 16.8276 8.95814 17.0306 9.2086 17.0306H10.7929C11.0432 17.0306 11.2465 16.8276 11.2465 16.5769V14.9933Z" fill="#4A5B6D"/>
<path d="M15.2057 14.9933C15.2057 14.7423 15.0024 14.5395 14.7522 14.5395H13.1678C12.9171 14.5395 12.7139 14.7423 12.7139 14.9933V16.5769C12.7139 16.8276 12.9171 17.0306 13.1678 17.0306H14.7522C15.0024 17.0306 15.2057 16.8276 15.2057 16.5769V14.9933Z" fill="#4A5B6D"/>
<path d="M18.0376 2.22693V4.64626C18.0376 5.73978 17.1505 6.62098 16.0571 6.62098H14.8078C13.7144 6.62098 12.8155 5.73978 12.8155 4.64626V2.21825H7.18447V4.64626C7.18447 5.73978 6.28565 6.62098 5.19239 6.62098H3.94282C2.84951 6.62098 1.96245 5.73978 1.96245 4.64626V2.22693C1.00689 2.25573 0.22168 3.04643 0.22168 4.0183V18.1967C0.22168 19.1869 1.02422 20.0001 2.01436 20.0001H17.9856C18.9743 20.0001 19.7783 19.1852 19.7783 18.1967V4.0183C19.7783 3.04643 18.9931 2.25573 18.0376 2.22693ZM17.4573 17.3138C17.4573 17.7417 17.1104 18.0889 16.6823 18.0889H3.28355C2.85549 18.0889 2.50855 17.7417 2.50855 17.3138V9.99014C2.50855 9.56208 2.85545 9.21493 3.28355 9.21493H16.6822C17.1103 9.21493 17.4573 9.56208 17.4573 9.99014L17.4573 17.3138Z" fill="#4A5B6D"/>
<path d="M3.93898 5.32396H5.17474C5.54983 5.32396 5.85396 5.02028 5.85396 4.64519V0.67901C5.85396 0.303881 5.54983 0 5.17474 0H3.93898C3.56385 0 3.25977 0.303881 3.25977 0.67901V4.64519C3.25977 5.02028 3.56385 5.32396 3.93898 5.32396Z" fill="#4A5B6D"/>
<path d="M14.7925 5.32396H16.0282C16.4031 5.32396 16.7072 5.02028 16.7072 4.64519V0.67901C16.7072 0.303881 16.4031 0 16.0282 0H14.7925C14.4174 0 14.1133 0.303881 14.1133 0.67901V4.64519C14.1133 5.02028 14.4174 5.32396 14.7925 5.32396Z" fill="#4A5B6D"/>
</g>
<defs>
<clipPath id="clip0">
<rect width="20" height="20" fill="white"/>
</clipPath>
</defs>
</svg>
