<svg width="23" height="31" viewBox="0 0 23 31" fill="none" xmlns="http://www.w3.org/2000/svg">
<mask id="path-1-outside-1" maskUnits="userSpaceOnUse" x="0" y="1" width="22" height="28" fill="black">
<rect fill="white" y="1" width="22" height="28"/>
<path fill-rule="evenodd" clip-rule="evenodd" d="M17.6013 28V27.3603L2.38344 17.656C0.538852 16.4797 0.538855 13.539 2.38344 12.3627L17.6013 2.65836V2H21V28H17.6013Z"/>
</mask>
<path fill-rule="evenodd" clip-rule="evenodd" d="M17.6013 28V27.3603L2.38344 17.656C0.538852 16.4797 0.538855 13.539 2.38344 12.3627L17.6013 2.65836V2H21V28H17.6013Z" fill="white"/>
<path d="M17.6013 28H16.6013V29H17.6013V28ZM17.6013 27.3603H18.6013V26.812L18.139 26.5172L17.6013 27.3603ZM2.38344 17.656L1.84576 18.4991L1.84576 18.4991L2.38344 17.656ZM2.38344 12.3627L1.84577 11.5196L1.84577 11.5196L2.38344 12.3627ZM17.6013 2.65836L18.139 3.50151L18.6013 3.20669V2.65836H17.6013ZM17.6013 2V1H16.6013V2H17.6013ZM21 2H22V1H21V2ZM21 28V29H22V28H21ZM18.6013 28V27.3603H16.6013V28H18.6013ZM18.139 26.5172L2.92111 16.8128L1.84576 18.4991L17.0636 28.2035L18.139 26.5172ZM2.92111 16.8128C2.332 16.4371 2 15.7543 2 15.0093C2 14.2644 2.332 13.5815 2.92112 13.2059L1.84577 11.5196C0.590294 12.3202 1.14102e-06 13.6958 0 15.0093C-1.14101e-06 16.3229 0.590289 17.6985 1.84576 18.4991L2.92111 16.8128ZM2.92112 13.2059L18.139 3.50151L17.0636 1.81521L1.84577 11.5196L2.92112 13.2059ZM18.6013 2.65836V2H16.6013V2.65836H18.6013ZM17.6013 3H21V1H17.6013V3ZM20 2V28H22V2H20ZM21 27H17.6013V29H21V27Z" fill="#B3C0CE" mask="url(#path-1-outside-1)"/>
<rect x="17" width="6" height="31" fill="white"/>
</svg>
