<svg width="100" height="50" viewBox="0 0 100 50" fill="none" xmlns="http://www.w3.org/2000/svg">
<g clip-path="url(#clip0)">
<path d="M12.5397 41.3168C10.6575 41.3168 8.92789 41.0058 7.40176 40.3714C5.87562 39.7494 4.54025 38.8537 3.44652 37.7092C2.35279 36.5648 1.5007 35.1715 0.902963 33.5667C0.305227 31.962 0 30.1457 0 28.1677C0 26.5257 0.178049 24.8836 0.546865 23.3037C0.915681 21.7238 1.43711 20.1937 2.12387 18.7755C2.81063 17.3574 3.66272 16.0263 4.66743 14.8196C5.67214 13.6129 6.81674 12.5555 8.0758 11.6847C9.33486 10.8015 10.7465 10.1173 12.26 9.61967C13.7734 9.13451 15.414 8.88571 17.1563 8.88571C18.835 8.88571 20.323 9.12207 21.5948 9.59479C22.8666 10.0675 23.9476 10.6895 24.7997 11.4484C25.6518 12.2072 26.3131 13.0656 26.7328 13.9986C27.1525 14.9316 27.3687 15.8646 27.3687 16.7602C27.3687 18.1784 27.0762 19.4971 26.4912 20.6789C25.9061 21.8607 24.8506 22.9429 23.3626 23.8635C21.8873 24.7841 19.8652 25.5802 17.3344 26.2395C14.8671 26.8864 11.7004 27.3965 7.9359 27.7821V27.9563C7.9359 32.7208 9.9326 35.0346 14.0277 35.0346C14.9053 35.0346 15.7065 34.9476 16.3805 34.7858C17.0673 34.6241 17.665 34.4126 18.1737 34.1763C18.6824 33.9399 19.153 33.6787 19.56 33.3801C19.9797 33.0816 20.3739 32.8079 20.7427 32.5591C21.1115 32.3103 21.4804 32.0988 21.8364 31.9246C22.218 31.738 22.6504 31.6385 23.0955 31.6385C23.388 31.6385 23.6678 31.7132 23.9349 31.85C24.202 31.9868 24.4309 32.161 24.6344 32.3849L26.5929 34.6988C26.6819 34.7983 26.6692 34.9476 26.5802 35.0346C25.4865 36.1045 24.3927 37.0499 23.3371 37.8461C22.2689 38.6422 21.1751 39.3016 20.0687 39.8116C18.9622 40.3216 17.7795 40.7073 16.5458 40.9561C15.3249 41.1924 13.9769 41.3168 12.5397 41.3168ZM16.7112 14.5832C15.7192 14.5832 14.7908 14.7823 13.9387 15.1804C13.0866 15.5784 12.2981 16.1507 11.6113 16.8598C10.9373 17.5937 10.3268 18.477 9.80542 19.4846C9.34758 20.4052 8.95333 21.4128 8.66082 22.4827C11.0263 22.1592 12.9594 21.7985 14.422 21.4004C15.9481 20.9899 17.1436 20.5545 17.9702 20.0942C18.7715 19.6463 19.3056 19.1612 19.56 18.6511C19.8143 18.1286 19.9542 17.5813 19.9542 17.0215C19.9542 16.7478 19.8906 16.4741 19.7762 16.1756C19.6617 15.8894 19.4709 15.6282 19.2166 15.4043C18.9622 15.1804 18.6188 14.9813 18.2119 14.8196C17.8049 14.6703 17.2962 14.5832 16.7112 14.5832Z" fill="white"/>
<path d="M52.3592 40.8566C52.2829 40.8566 52.2193 40.8317 52.1684 40.7695C52.1175 40.7197 52.0921 40.6451 52.1048 40.5705L54.483 20.8033C54.7374 18.8377 54.6484 17.432 54.2032 16.611C53.7708 15.8148 52.995 15.4292 51.825 15.4292C51.0238 15.4292 50.1971 15.6531 49.345 16.1134C48.4802 16.5737 47.6409 17.233 46.8396 18.0913C46.0257 18.9497 45.2754 19.9947 44.6013 21.1889C43.9273 22.3831 43.3677 23.7391 42.948 25.2195L41.1929 40.6327C41.1802 40.7571 41.0658 40.8566 40.9386 40.8566H33.2952C33.2189 40.8566 33.1553 40.8317 33.1044 40.7695C33.0536 40.7197 33.0281 40.6451 33.0408 40.5705L36.8562 9.49528C36.8689 9.37088 36.9834 9.27136 37.1105 9.27136H40.9767C41.8415 9.27136 42.5283 9.48284 43.0116 9.9058C43.5076 10.3412 43.7619 11.0254 43.7619 11.9335L43.622 15.1306C45.1227 13.1402 46.776 11.5976 48.5565 10.5651C50.5532 9.4082 52.6262 8.82352 54.7501 8.82352C56.0982 8.82352 57.3445 9.0972 58.4255 9.63212C59.5066 10.1795 60.4222 10.9756 61.1217 11.9957C61.8212 13.0158 62.3172 14.2971 62.597 15.7775C62.8768 17.2579 62.8895 18.9746 62.6478 20.8655L60.2696 40.6202C60.2569 40.7446 60.1424 40.8441 60.0153 40.8441H52.3592V40.8566Z" fill="white"/>
<path d="M71.3848 50C71.2958 50 71.2067 49.9503 71.1686 49.8756C71.1177 49.801 71.1177 49.7014 71.1686 49.6268L77.413 38.182L69.4263 9.61969C69.4008 9.54505 69.4263 9.47041 69.4644 9.40821C69.5026 9.34601 69.5916 9.30869 69.6679 9.30869H76.0777C76.7008 9.30869 77.1841 9.47041 77.5148 9.79385C77.82 10.0924 78.0362 10.4656 78.1507 10.8886L82.055 26.9984C82.1949 27.7324 82.3221 28.4539 82.4111 29.1878C82.5129 28.9515 82.6273 28.7151 82.7291 28.4912C82.9707 27.9812 83.2123 27.4587 83.454 26.9362L91.2754 10.8139C91.5044 10.3661 91.835 10.0053 92.2674 9.73165C92.6998 9.45797 93.1577 9.30869 93.6155 9.30869H99.7455C99.8345 9.30869 99.9108 9.35845 99.9617 9.43309C100.013 9.50773 100.013 9.5948 99.9744 9.68188L79.7531 48.333C79.4479 48.8928 79.0663 49.3158 78.6467 49.5895C78.2143 49.8632 77.6801 50.0125 77.0569 50.0125H71.3848V50Z" fill="white"/>
</g>
<defs>
<clipPath id="clip0">
<rect width="100" height="50" fill="white"/>
</clipPath>
</defs>
</svg>
