<svg width="20" height="20" viewBox="0 0 20 20" fill="none" xmlns="http://www.w3.org/2000/svg">
<path d="M2.27077 8.35913C2.91376 8.35913 3.49455 7.97307 3.74326 7.37996C4.77017 4.93332 7.18484 3.20904 9.99985 3.20904C11.5514 3.20904 12.9738 3.74082 14.1141 4.62283L13.2203 4.7612C12.915 4.80853 12.6775 5.05076 12.6361 5.3569C12.5946 5.66287 12.7596 5.95973 13.0411 6.08624L17.9565 8.2976C18.172 8.39435 18.4216 8.37576 18.6202 8.24814C18.8184 8.12031 18.9389 7.90095 18.9402 7.66492L18.9657 2.24888C18.9674 1.94077 18.7666 1.66829 18.4721 1.57847C18.1772 1.48866 17.8586 1.60265 17.6879 1.85912L17.0104 2.87733C15.2041 1.09919 12.729 0 9.99985 0C5.86181 0 2.30402 2.52702 0.786629 6.11867C0.575886 6.61651 0.629003 7.18654 0.927383 7.63693C1.22576 8.08747 1.73013 8.35913 2.27077 8.35913Z" fill="#4A5B6D"/>
<path d="M19.0726 12.3631C18.7741 11.9125 18.2697 11.6409 17.7291 11.6409C17.0862 11.6409 16.5054 12.027 16.2567 12.6201C15.2297 15.0667 12.815 16.791 10.0001 16.791C8.44851 16.791 7.0261 16.2592 5.8857 15.3772L6.77957 15.2389C7.08484 15.1916 7.32235 14.9493 7.36381 14.6432C7.40523 14.3372 7.24034 14.0403 6.95878 13.9138L2.04341 11.7024C1.8279 11.6057 1.57833 11.6242 1.37969 11.7519C1.18147 11.8797 1.061 12.0991 1.05972 12.3351L1.03419 17.7511C1.03247 18.0592 1.23328 18.3317 1.52776 18.4215C1.82269 18.5113 2.14135 18.3973 2.31194 18.1408L2.98945 17.1226C4.79574 18.9008 7.27092 20 10 20C14.1381 20 17.6958 17.473 19.2132 13.8814C19.424 13.3835 19.3709 12.8135 19.0726 12.3631Z" fill="#4A5B6D"/>
</svg>
