<svg width="46" height="126" viewBox="0 0 46 126" fill="none" xmlns="http://www.w3.org/2000/svg">
<path d="M13.16 36.472C11.176 36.472 9.48 35.672 8.072 34.072C6.664 32.408 5.96 30.328 5.96 27.832C5.96 24.248 7.144 20.504 9.512 16.6C11.944 12.696 14.984 9.752 18.632 7.768L21.416 13.528C19.752 14.936 18.344 16.248 17.192 17.464C16.104 18.68 15.336 20.344 14.888 22.456C15.976 22.456 17.128 23.16 18.344 24.568C19.56 25.976 20.168 27.576 20.168 29.368C20.168 31.032 19.496 32.632 18.152 34.168C16.808 35.704 15.144 36.472 13.16 36.472ZM30.92 36.472C28.936 36.472 27.24 35.672 25.832 34.072C24.424 32.408 23.72 30.328 23.72 27.832C23.72 24.248 24.904 20.504 27.272 16.6C29.704 12.696 32.712 9.752 36.296 7.768L39.176 13.528C37.512 14.936 36.104 16.248 34.952 17.464C33.864 18.68 33.096 20.344 32.648 22.456C33.672 22.456 34.824 23.16 36.104 24.568C37.384 25.976 38.024 27.576 38.024 29.368C38.024 31.032 37.32 32.632 35.912 34.168C34.568 35.704 32.904 36.472 30.92 36.472Z" fill="#EEF2F4"/>
<path d="M8.072 34.072L4.25507 37.3017L4.28639 37.3387L4.31843 37.3751L8.072 34.072ZM9.512 16.6L5.2681 13.9563L5.25238 13.9815L5.23695 14.0069L9.512 16.6ZM18.632 7.768L23.1337 5.59215L20.8511 0.869481L16.2431 3.37558L18.632 7.768ZM21.416 13.528L24.6457 17.3449L27.6043 14.8415L25.9177 11.3522L21.416 13.528ZM17.192 17.464L13.5622 14.0253L13.5133 14.077L13.4658 14.13L17.192 17.464ZM14.888 22.456L9.99683 21.4185L8.71614 27.456H14.888V22.456ZM18.344 24.568L22.1281 21.2999L22.1281 21.2999L18.344 24.568ZM18.152 34.168L21.9149 37.4605L21.9149 37.4605L18.152 34.168ZM25.832 34.072L22.0151 37.3017L22.0464 37.3387L22.0784 37.3751L25.832 34.072ZM27.272 16.6L23.0281 13.9563L23.0124 13.9815L22.997 14.0069L27.272 16.6ZM36.296 7.768L40.7681 5.53193L38.4363 0.868214L33.8744 3.39353L36.296 7.768ZM39.176 13.528L42.4057 17.3449L45.4055 14.8066L43.6481 11.2919L39.176 13.528ZM34.952 17.464L31.3222 14.0253L31.2733 14.077L31.2258 14.13L34.952 17.464ZM32.648 22.456L27.7568 21.4185L26.4761 27.456H32.648V22.456ZM36.104 24.568L32.4043 27.9314L32.4043 27.9314L36.104 24.568ZM35.912 34.168L32.2262 30.7894L32.1872 30.832L32.1491 30.8755L35.912 34.168ZM13.16 31.472C12.7291 31.472 12.3639 31.3806 11.8256 30.7689L4.31843 37.3751C6.59608 39.9634 9.62286 41.472 13.16 41.472V31.472ZM11.8889 30.8423C11.3546 30.2108 10.96 29.3272 10.96 27.832H0.96C0.96 31.3288 1.97343 34.6052 4.25507 37.3017L11.8889 30.8423ZM10.96 27.832C10.96 25.3814 11.7651 22.5265 13.787 19.1931L5.23695 14.0069C2.52289 18.4815 0.96 23.1146 0.96 27.832H10.96ZM13.7559 19.2437C15.7814 15.9923 18.2114 13.6884 21.0209 12.1604L16.2431 3.37558C11.7566 5.81561 8.10664 9.39966 5.2681 13.9563L13.7559 19.2437ZM14.1303 9.94384L16.9143 15.7038L25.9177 11.3522L23.1337 5.59215L14.1303 9.94384ZM18.1863 9.71107C16.4213 11.2045 14.8715 12.6433 13.5622 14.0253L20.8218 20.9027C21.8165 19.8527 23.0827 18.6675 24.6457 17.3449L18.1863 9.71107ZM13.4658 14.13C11.6371 16.1739 10.5693 18.7198 9.99683 21.4185L19.7792 23.4935C20.1027 21.9682 20.5709 21.1861 20.9182 20.798L13.4658 14.13ZM14.888 27.456C14.6129 27.456 14.3837 27.4104 14.2169 27.358C14.0555 27.3072 13.9695 27.2558 13.9607 27.2504C13.9531 27.2458 14.006 27.2774 14.1159 27.3755C14.2252 27.473 14.3742 27.6211 14.5599 27.8361L22.1281 21.2999C20.6073 19.5389 18.188 17.456 14.888 17.456V27.456ZM14.5599 27.8361C15.0243 28.3738 15.168 28.8251 15.168 29.368H25.168C25.168 26.3269 24.0957 23.5782 22.1281 21.2999L14.5599 27.8361ZM15.168 29.368C15.168 29.5626 15.1239 30.0358 14.3891 30.8755L21.9149 37.4605C23.8681 35.2282 25.168 32.5014 25.168 29.368H15.168ZM14.3891 30.8755C13.9634 31.362 13.6555 31.472 13.16 31.472V41.472C16.6325 41.472 19.6526 40.046 21.9149 37.4605L14.3891 30.8755ZM30.92 31.472C30.4891 31.472 30.1239 31.3806 29.5856 30.7689L22.0784 37.3751C24.3561 39.9634 27.3829 41.472 30.92 41.472V31.472ZM29.6489 30.8423C29.1146 30.2108 28.72 29.3272 28.72 27.832H18.72C18.72 31.3288 19.7334 34.6052 22.0151 37.3017L29.6489 30.8423ZM28.72 27.832C28.72 25.3814 29.5251 22.5265 31.547 19.1931L22.997 14.0069C20.2829 18.4815 18.72 23.1146 18.72 27.832H28.72ZM31.5159 19.2437C33.554 15.972 35.9664 13.6655 38.7176 12.1425L33.8744 3.39353C29.4576 5.83853 25.854 9.41995 23.0281 13.9563L31.5159 19.2437ZM31.8239 10.0041L34.7039 15.7641L43.6481 11.2919L40.7681 5.53193L31.8239 10.0041ZM35.9463 9.71107C34.1813 11.2045 32.6315 12.6433 31.3222 14.0253L38.5818 20.9027C39.5765 19.8527 40.8427 18.6675 42.4057 17.3449L35.9463 9.71107ZM31.2258 14.13C29.3971 16.1739 28.3293 18.7198 27.7568 21.4185L37.5392 23.4935C37.8627 21.9682 38.3309 21.1861 38.6782 20.798L31.2258 14.13ZM32.648 27.456C31.9909 27.456 31.6379 27.2291 31.6727 27.2504C31.6837 27.2571 31.7565 27.3036 31.8896 27.4192C32.0214 27.5337 32.1935 27.6995 32.4043 27.9314L39.8037 21.2046C38.3183 19.5707 35.8971 17.456 32.648 17.456V27.456ZM32.4043 27.9314C32.9042 28.4813 33.024 28.9015 33.024 29.368H43.024C43.024 26.2505 41.8638 23.4707 39.8037 21.2046L32.4043 27.9314ZM33.024 29.368C33.024 29.4872 33.0111 29.9332 32.2262 30.7894L39.5978 37.5466C41.6289 35.3308 43.024 32.5768 43.024 29.368H33.024ZM32.1491 30.8755C31.7234 31.362 31.4155 31.472 30.92 31.472V41.472C34.3925 41.472 37.4126 40.046 39.6749 37.4605L32.1491 30.8755Z" fill="white"/>
</svg>
