<svg width="45" height="42" viewBox="0 0 45 42" fill="none" xmlns="http://www.w3.org/2000/svg">
<path d="M32.496 5.768C34.48 5.768 36.144 6.568 37.488 8.168C38.896 9.704 39.6 11.752 39.6 14.312C39.6 17.896 38.416 21.64 36.048 25.544C33.68 29.448 30.672 32.424 27.024 34.472L24.24 28.616C25.84 27.208 27.216 25.896 28.368 24.68C29.52 23.4 30.32 21.736 30.768 19.688C29.616 19.688 28.432 18.984 27.216 17.576C26 16.168 25.392 14.6 25.392 12.872C25.392 11.208 26.064 9.608 27.408 8.07199C28.816 6.536 30.512 5.768 32.496 5.768ZM14.64 5.768C16.624 5.768 18.32 6.568 19.728 8.168C21.2 9.704 21.936 11.752 21.936 14.312C21.936 17.896 20.72 21.64 18.288 25.544C15.92 29.448 12.912 32.424 9.264 34.472L6.576 28.616C8.176 27.208 9.52 25.896 10.608 24.68C11.76 23.4 12.56 21.736 13.008 19.688C11.92 19.688 10.736 18.984 9.456 17.576C8.24 16.168 7.632 14.6 7.632 12.872C7.632 11.208 8.304 9.608 9.648 8.07199C10.992 6.536 12.656 5.768 14.64 5.768Z" fill="#EEF2F4"/>
<path d="M37.488 8.168L33.6595 11.384L33.7291 11.4668L33.8022 11.5466L37.488 8.168ZM27.024 34.472L22.5083 36.6188L24.8058 41.4514L29.4717 38.8319L27.024 34.472ZM24.24 28.616L20.9369 24.8624L18.1043 27.3551L19.7243 30.7628L24.24 28.616ZM28.368 24.68L31.9978 28.1187L32.0417 28.0723L32.0845 28.0248L28.368 24.68ZM30.768 19.688L35.6525 20.7565L36.98 14.688H30.768V19.688ZM27.216 17.576L31.0001 14.3079L31.0001 14.3079L27.216 17.576ZM27.408 8.07199L23.7222 4.69337L23.6832 4.73598L23.6451 4.77948L27.408 8.07199ZM19.728 8.168L15.9744 11.4711L16.0446 11.5509L16.1181 11.6275L19.728 8.168ZM18.288 25.544L14.0441 22.9003L14.0284 22.9255L14.013 22.9509L18.288 25.544ZM9.264 34.472L4.71985 36.5578L6.9824 41.4869L11.7117 38.8319L9.264 34.472ZM6.576 28.616L3.27286 24.8624L0.479717 27.3204L2.03185 30.7018L6.576 28.616ZM10.608 24.68L6.89153 21.3352L6.88665 21.3406L6.88179 21.346L10.608 24.68ZM13.008 19.688L17.8925 20.7565L19.22 14.688H13.008V19.688ZM9.456 17.576L5.67188 20.8441L5.71349 20.8923L5.7563 20.9394L9.456 17.576ZM9.648 8.07199L5.88512 4.77947L5.88511 4.77948L9.648 8.07199ZM32.496 10.768C32.9153 10.768 33.2076 10.846 33.6595 11.384L41.3165 4.95204C39.0804 2.28995 36.0447 0.767996 32.496 0.767996V10.768ZM33.8022 11.5466C34.1821 11.961 34.6 12.7032 34.6 14.312H44.6C44.6 10.8008 43.6099 7.44697 41.1738 4.78937L33.8022 11.5466ZM34.6 14.312C34.6 16.7626 33.7949 19.6175 31.773 22.9509L40.3231 28.1371C43.0371 23.6625 44.6 19.0294 44.6 14.312H34.6ZM31.773 22.9509C29.8097 26.1876 27.4056 28.5237 24.5763 30.1121L29.4717 38.8319C33.9384 36.3243 37.5503 32.7084 40.3231 28.1371L31.773 22.9509ZM31.5397 32.3252L28.7557 26.4692L19.7243 30.7628L22.5083 36.6188L31.5397 32.3252ZM27.5431 32.3696C29.2278 30.8871 30.7182 29.4693 31.9978 28.1187L24.7382 21.2413C23.7138 22.3226 22.4522 23.5289 20.9369 24.8624L27.5431 32.3696ZM32.0845 28.0248C33.9304 25.9737 35.0593 23.4684 35.6525 20.7565L25.8835 18.6195C25.5807 20.0036 25.1096 20.8263 24.6515 21.3352L32.0845 28.0248ZM30.768 14.688C30.9968 14.688 31.1924 14.724 31.3408 14.7687C31.4845 14.812 31.562 14.8567 31.5714 14.8623C31.5791 14.8669 31.5292 14.838 31.4251 14.7464C31.3214 14.6551 31.1786 14.5145 31.0001 14.3079L23.4319 20.8441C25.0247 22.6884 27.4703 24.688 30.768 24.688V14.688ZM31.0001 14.3079C30.5034 13.7328 30.392 13.3042 30.392 12.872H20.392C20.392 15.8958 21.4966 18.6032 23.4319 20.8441L31.0001 14.3079ZM30.392 12.872C30.392 12.6774 30.4361 12.2042 31.1709 11.3645L23.6451 4.77948C21.6919 7.01176 20.392 9.73864 20.392 12.872H30.392ZM31.0938 11.4506C31.6084 10.8892 31.9911 10.768 32.496 10.768V0.767996C29.0329 0.767996 26.0236 2.18281 23.7222 4.69337L31.0938 11.4506ZM14.64 10.768C15.0709 10.768 15.4361 10.8594 15.9744 11.4711L23.4816 4.86486C21.2039 2.27662 18.1771 0.767996 14.64 0.767996V10.768ZM16.1181 11.6275C16.5223 12.0494 16.936 12.7628 16.936 14.312H26.936C26.936 10.7412 25.8777 7.35864 23.3379 4.70847L16.1181 11.6275ZM16.936 14.312C16.936 16.7307 16.12 19.5678 14.0441 22.9003L22.5319 28.1877C25.32 23.7122 26.936 19.0613 26.936 14.312H16.936ZM14.013 22.9509C12.0497 26.1876 9.64563 28.5237 6.81633 30.1121L11.7117 38.8319C16.1784 36.3243 19.7903 32.7084 22.563 28.1371L14.013 22.9509ZM13.8081 32.3862L11.1201 26.5302L2.03185 30.7018L4.71985 36.5578L13.8081 32.3862ZM9.87914 32.3696C11.586 30.8675 13.0807 29.4149 14.3342 28.014L6.88179 21.346C5.9593 22.377 4.76599 23.5485 3.27286 24.8624L9.87914 32.3696ZM14.3245 28.0248C16.1704 25.9737 17.2993 23.4684 17.8925 20.7565L8.1235 18.6195C7.82073 20.0036 7.34956 20.8263 6.89153 21.3352L14.3245 28.0248ZM13.008 14.688C13.5734 14.688 13.8812 14.8753 13.8594 14.8623C13.8491 14.8562 13.7792 14.8128 13.652 14.7037C13.5255 14.5953 13.3594 14.4367 13.1557 14.2126L5.7563 20.9394C7.3175 22.6567 9.75739 24.688 13.008 24.688V14.688ZM13.2401 14.3079C12.7434 13.7328 12.632 13.3042 12.632 12.872H2.632C2.632 15.8958 3.73655 18.6032 5.67188 20.8441L13.2401 14.3079ZM12.632 12.872C12.632 12.6774 12.6761 12.2042 13.4109 11.3645L5.88511 4.77948C3.93187 7.01176 2.632 9.73864 2.632 12.872H12.632ZM13.4109 11.3645C13.8366 10.8779 14.1445 10.768 14.64 10.768V0.767996C11.1675 0.767996 8.14737 2.19404 5.88512 4.77947L13.4109 11.3645Z" fill="white"/>
</svg>
