<svg width="25" height="25" viewBox="0 0 25 25" fill="none" xmlns="http://www.w3.org/2000/svg">
<path fill-rule="evenodd" clip-rule="evenodd" d="M0 14.5C0 8.6996 4.6996 4 10.5 4C12.8936 4 15.0997 4.80028 16.8655 6.14795C16.038 6.37346 15.3954 6.83828 15.1311 7.41336C13.7995 6.54034 12.2081 6.03226 10.5 6.03226C5.83004 6.03226 2.03226 9.83004 2.03226 14.5C2.03226 19.17 5.83004 22.9677 10.5 22.9677C15.17 22.9677 18.9677 19.17 18.9677 14.5C18.9677 12.8423 18.4892 11.2946 17.663 9.98752C17.7736 9.99577 17.8861 10 18 10C18.6717 10 19.2918 9.85284 19.7918 9.60424C20.5633 11.0659 21 12.7318 21 14.5C21 20.3004 16.3004 25 10.5 25C4.6996 25 0 20.3004 0 14.5ZM8.46774 12.4677C8.46774 13.2171 7.8623 13.8226 7.1129 13.8226C6.36351 13.8226 5.75806 13.2171 5.75806 12.4677C5.75806 11.7183 6.36351 11.1129 7.1129 11.1129C7.8623 11.1129 8.46774 11.7183 8.46774 12.4677ZM15.2419 12.4677C15.2419 13.2171 14.6365 13.8226 13.8871 13.8226C13.1377 13.8226 12.5323 13.2171 12.5323 12.4677C12.5323 11.7183 13.1377 11.1129 13.8871 11.1129C14.6365 11.1129 15.2419 11.7183 15.2419 12.4677ZM10.5 18.5645C11.876 18.5645 13.1758 17.9548 14.0565 16.8964C14.4163 16.4645 15.0599 16.4095 15.4875 16.7651C15.9194 17.125 15.9786 17.7643 15.6187 18.1962C14.3486 19.7204 12.4815 20.5925 10.5 20.5925C8.51855 20.5925 6.65141 19.7204 5.38125 18.1962C5.0256 17.7643 5.08065 17.125 5.5125 16.7651C5.94012 16.4095 6.58367 16.4645 6.94355 16.8964C7.82419 17.9591 9.12399 18.5645 10.5 18.5645Z" fill="#4A5B6D"/>
<path d="M23.3571 4.03571H20.9643V1.64286C20.9643 1.01174 20.4525 0.5 19.8214 0.5H19.1786C18.5475 0.5 18.0357 1.01174 18.0357 1.64286V4.03571H15.6429C15.0117 4.03571 14.5 4.54745 14.5 5.17857V5.82143C14.5 6.45255 15.0117 6.96429 15.6429 6.96429H18.0357V9.35714C18.0357 9.98826 18.5475 10.5 19.1786 10.5H19.8214C20.4525 10.5 20.9643 9.98826 20.9643 9.35714V6.96429H23.3571C23.9883 6.96429 24.5 6.45255 24.5 5.82143V5.17857C24.5 4.54745 23.9883 4.03571 23.3571 4.03571Z" fill="#4A5B6D" stroke="white"/>
</svg>
