<svg width="20" height="20" viewBox="0 0 20 20" fill="none" xmlns="http://www.w3.org/2000/svg">
<path fill-rule="evenodd" clip-rule="evenodd" d="M0.516489 5.53411C0.511086 5.58523 0.505634 5.63682 0.5 5.68903C0.547352 5.69662 0.594207 5.7043 0.640708 5.71192C0.758269 5.73119 0.873566 5.75009 0.988864 5.76634C1.04251 5.77389 1.09614 5.78144 1.14977 5.78899C1.57978 5.84952 2.00948 5.91002 2.43959 5.96684C2.59997 5.98797 2.7327 6.05035 2.84339 6.17096C2.92845 6.26328 3.01577 6.35344 3.10307 6.44358C3.21561 6.55978 3.32812 6.67596 3.43576 6.79671C4.31204 7.77812 5.13706 8.80178 5.93442 9.84865C6.11452 10.0862 6.28696 10.331 6.45927 10.5756C6.53895 10.6887 6.6186 10.8017 6.69898 10.9141C6.74919 10.9847 6.76662 11.0615 6.7661 11.1497C6.76569 11.2602 6.76519 11.3708 6.7647 11.4814C6.76214 12.0527 6.75957 12.624 6.76816 13.1949C6.77328 13.5753 6.58163 13.7232 6.34283 13.8165C6.02614 13.9402 5.69255 13.9877 5.3569 14.0098C5.20938 14.0198 5.06137 14.0175 4.91065 14.0151C4.84358 14.014 4.77598 14.0129 4.70763 14.0129C4.68835 14.1778 4.66953 14.3346 4.65086 14.49C4.64175 14.5659 4.63267 14.6415 4.6236 14.7175C4.63619 14.7186 4.64645 14.7197 4.65532 14.7207C4.66885 14.7223 4.67918 14.7235 4.6897 14.7232C4.78737 14.7219 4.885 14.7207 4.98262 14.7195C5.27583 14.7159 5.56897 14.7124 5.86267 14.7062C6.05771 14.7024 6.25281 14.6972 6.44799 14.6919C6.78049 14.683 7.1132 14.6741 7.44612 14.6722C8.43666 14.667 9.42822 14.6691 10.4193 14.6712C10.6165 14.6715 10.8132 14.6756 11.0101 14.6797C11.1146 14.6818 11.2191 14.684 11.3238 14.6856C11.3292 14.6857 11.3351 14.6861 11.341 14.6866C11.3723 14.689 11.4062 14.6917 11.4113 14.6392C11.4339 14.416 11.4569 14.1938 11.482 13.9552C11.1425 13.9321 10.8047 13.9089 10.4651 13.8857C10.0862 13.8597 9.70537 13.8337 9.31802 13.8072V13.0011C9.31802 12.8031 9.31802 12.6049 9.31794 12.4067C9.31786 12.0103 9.31769 11.6137 9.31802 11.2172C9.31802 11.0697 9.35139 10.9332 9.45333 10.8192C9.49348 10.7742 9.5319 10.7275 9.57031 10.6807C9.64243 10.593 9.71446 10.5053 9.79773 10.4291C9.86853 10.3641 9.93932 10.2991 10.0101 10.2341C10.4592 9.82169 10.9085 9.40901 11.3724 9.01363C12.0355 8.44871 12.7207 7.91162 13.4427 7.42401C13.4552 7.4156 13.4678 7.40702 13.4805 7.39838C13.5721 7.33604 13.668 7.27075 13.7711 7.24721C14.1176 7.16875 14.4657 7.09723 14.8138 7.02572C15.0191 6.98352 15.2244 6.94134 15.4294 6.89773C15.4679 6.88949 15.5088 6.85753 15.5319 6.82506C15.6328 6.67837 15.7308 6.52935 15.8287 6.38041C15.8526 6.34408 15.8764 6.30776 15.9003 6.27147C15.9095 6.25721 15.917 6.24227 15.9253 6.22578C15.9296 6.21725 15.9342 6.20829 15.9393 6.19879H9.70595C9.71223 6.2332 9.71834 6.26737 9.72446 6.30134C9.75659 6.47955 9.78765 6.65216 9.82384 6.82402C9.82995 6.85186 9.86787 6.88949 9.89455 6.89362C10.0642 6.91678 10.2341 6.93802 10.4039 6.95925C10.5855 6.98196 10.767 7.00466 10.9481 7.02969C11.1334 7.05533 11.3182 7.08554 11.5103 7.11692C11.5922 7.13033 11.6756 7.14395 11.7609 7.15752C11.7442 7.18703 11.7297 7.21598 11.7158 7.24378C11.6877 7.29999 11.6619 7.35152 11.6255 7.39359C11.5916 7.43274 11.558 7.47229 11.5243 7.51186C11.3908 7.6687 11.257 7.82588 11.1024 7.96007C10.4714 8.50948 9.83441 9.05219 9.1965 9.59569C9.00493 9.75891 8.81328 9.92219 8.62163 10.0857C8.24898 9.58057 7.86551 9.08201 7.48094 8.582C6.79155 7.68568 6.09863 6.78474 5.45785 5.83284C5.56137 5.82284 5.66211 5.81252 5.76111 5.80238C5.94289 5.78376 6.11886 5.76574 6.29569 5.75139C6.64752 5.72298 7.00006 5.69816 7.35273 5.67334C7.42228 5.66844 7.49185 5.66354 7.56142 5.65861C7.65105 5.65294 7.71408 5.62665 7.71359 5.51996C7.71359 5.49372 7.71945 5.46748 7.72524 5.44124C7.72854 5.42624 7.73184 5.41124 7.73407 5.39625C7.75357 5.27769 7.77216 5.1587 7.79198 5.03227L7.79661 5.00245H7.67567H0.697799C0.690306 5.00245 0.682665 5.00183 0.67509 5.00121C0.6578 4.9998 0.640824 4.99842 0.626574 5.00451C0.604021 5.01379 0.573282 5.03544 0.570713 5.05503C0.550433 5.21313 0.533713 5.37124 0.516489 5.53411ZM15.9199 8.77682L15.9247 8.76088C16.2132 7.81357 16.5018 6.86539 16.7912 5.91425L18.0977 6.31677C18.5635 6.46032 19.03 6.60406 19.5 6.74876C19.4693 6.80025 19.4419 6.84672 19.4157 6.8915L19.3765 6.95803C19.1141 7.40362 18.8516 7.84908 18.5891 8.29453L18.5856 8.30042C18.1075 9.11183 17.6293 9.92319 17.152 10.7352C16.8102 11.3161 16.4699 11.898 16.1328 12.4815C16.0963 12.5444 16.0656 12.5614 15.9933 12.5383C15.7371 12.4558 15.4798 12.377 15.2223 12.2982C15.1353 12.2716 15.0484 12.2449 14.9613 12.2182C14.9504 12.2143 14.9395 12.2102 14.9269 12.2055C14.9185 12.2023 14.9093 12.1989 14.8989 12.1951C14.8934 12.1931 14.8876 12.191 14.8813 12.1887C15.2277 11.0502 15.5736 9.91412 15.9199 8.77682ZM15.7573 13.6959L15.7505 13.7154C15.745 13.7311 15.7401 13.745 15.7343 13.7583C15.5534 14.1722 15.3724 14.5856 15.1911 15L13.6015 14.532L13.6225 14.4822V14.482C13.6474 14.423 13.6724 14.3636 13.6984 14.3042C13.7455 14.1948 13.7928 14.0855 13.84 13.9762L13.8409 13.9742C13.943 13.7382 14.0451 13.5022 14.1457 13.2661C14.1673 13.2166 14.1852 13.1846 14.2487 13.2098C14.7309 13.4001 15.2233 13.5557 15.7276 13.6763C15.7317 13.6778 15.7358 13.6808 15.7415 13.685C15.7457 13.6881 15.7508 13.6917 15.7573 13.6959Z" fill="#FF0027"/>
</svg>
