<svg width="32" height="24" viewBox="0 0 32 24" fill="none" xmlns="http://www.w3.org/2000/svg">
<rect x="0.5" y="0.5" width="31" height="23" rx="2.5" fill="white" stroke="#3C787E"/>
<g filter="url(#filter0_i)">
<path fill-rule="evenodd" clip-rule="evenodd" d="M5.01996 6.64093C5.01342 6.70227 5.00682 6.76418 5 6.82683C5.05732 6.83594 5.11404 6.84516 5.17033 6.8543C5.31264 6.87743 5.45221 6.9001 5.59178 6.91961C5.65672 6.92866 5.72164 6.93772 5.78656 6.94678C6.3071 7.01943 6.82726 7.09202 7.34791 7.16021C7.54206 7.18557 7.70273 7.26042 7.83672 7.40515C7.93969 7.51594 8.04539 7.62413 8.15107 7.7323C8.2873 7.87174 8.4235 8.01115 8.5538 8.15605C9.61455 9.33374 10.6133 10.5621 11.5785 11.8184C11.7965 12.1034 12.0052 12.3972 12.2138 12.6907C12.3103 12.8264 12.4067 12.9621 12.504 13.0969C12.5648 13.1816 12.5859 13.2738 12.5852 13.3796C12.5847 13.5123 12.5842 13.645 12.5836 13.7777C12.5805 14.4633 12.5773 15.1488 12.5877 15.8339C12.5939 16.2904 12.3619 16.4679 12.0729 16.5798C11.6895 16.7283 11.2857 16.7852 10.8794 16.8118C10.7008 16.8238 10.5216 16.821 10.3392 16.8181C10.258 16.8168 10.1762 16.8155 10.0934 16.8155C10.0701 17.0134 10.0473 17.2015 10.0247 17.388C10.0137 17.4791 10.0027 17.5698 9.9917 17.661C10.0069 17.6623 10.0194 17.6637 10.0301 17.6649C10.0465 17.6668 10.059 17.6682 10.0717 17.6678C10.1899 17.6663 10.3081 17.6649 10.4263 17.6634C10.7812 17.6591 11.1361 17.6549 11.4916 17.6474C11.7277 17.6429 11.9639 17.6366 12.2002 17.6303C12.6027 17.6196 13.0054 17.6089 13.4084 17.6066C14.6075 17.6004 15.8078 17.6029 17.0075 17.6054C17.2462 17.6058 17.4844 17.6107 17.7227 17.6156C17.8492 17.6182 17.9757 17.6208 18.1024 17.6227C18.109 17.6228 18.1161 17.6233 18.1232 17.6239C18.1612 17.6268 18.2022 17.63 18.2084 17.567C18.2357 17.2992 18.2636 17.0326 18.294 16.7462C17.883 16.7185 17.474 16.6907 17.063 16.6628C16.6043 16.6317 16.1433 16.6004 15.6744 16.5687V15.6013C15.6744 15.3637 15.6744 15.1259 15.6743 14.8881C15.6742 14.4124 15.674 13.9365 15.6744 13.4606C15.6744 13.2837 15.7148 13.1198 15.8382 12.9831C15.8868 12.9291 15.9333 12.873 15.9798 12.8168C16.0671 12.7116 16.1543 12.6064 16.2551 12.5149C16.3408 12.4369 16.4265 12.3589 16.5122 12.2809C17.0558 11.786 17.5997 11.2908 18.1613 10.8164C18.964 10.1385 19.7934 9.49394 20.6674 8.90881C20.6826 8.89872 20.6978 8.88842 20.7132 8.87806C20.8241 8.80325 20.9402 8.7249 21.065 8.69665C21.4844 8.6025 21.9058 8.51668 22.3271 8.43086C22.5757 8.38023 22.8242 8.32961 23.0724 8.27728C23.1189 8.26739 23.1685 8.22904 23.1964 8.19007C23.3186 8.01404 23.4372 7.83522 23.5557 7.65649C23.5846 7.6129 23.6135 7.56931 23.6424 7.52577C23.6535 7.50865 23.6626 7.49073 23.6727 7.47094C23.6779 7.4607 23.6834 7.44995 23.6896 7.43855H16.144C16.1516 7.47984 16.159 7.52085 16.1664 7.56161C16.2053 7.77546 16.2429 7.98259 16.2867 8.18883C16.2941 8.22223 16.34 8.26739 16.3723 8.27234C16.5777 8.30014 16.7833 8.32562 16.9889 8.3511C17.2087 8.37835 17.4284 8.40559 17.6477 8.43563C17.872 8.4664 18.0957 8.50265 18.3282 8.54031C18.4274 8.5564 18.5283 8.57274 18.6315 8.58902C18.6114 8.62444 18.5938 8.65918 18.577 8.69254C18.5429 8.75999 18.5117 8.82183 18.4677 8.87231C18.4266 8.91929 18.3859 8.96675 18.3451 9.01423C18.1836 9.20244 18.0216 9.39106 17.8344 9.55208C17.0706 10.2114 16.2995 10.8626 15.5273 11.5148C15.2954 11.7107 15.0634 11.9066 14.8314 12.1029C14.3803 11.4967 13.9161 10.8984 13.4506 10.2984C12.6161 9.22282 11.7773 8.14169 11.0016 6.9994C11.1269 6.9874 11.2488 6.97502 11.3687 6.96285C11.5887 6.94051 11.8018 6.91889 12.0158 6.90167C12.4417 6.86757 12.8685 6.83779 13.2954 6.808C13.3796 6.80212 13.4638 6.79624 13.548 6.79033C13.6565 6.78353 13.7328 6.75198 13.7322 6.62395C13.7322 6.59246 13.7393 6.56097 13.7463 6.52948C13.7503 6.51149 13.7543 6.49349 13.757 6.4755C13.7806 6.33323 13.8031 6.19044 13.8271 6.03872L13.8327 6.00294H13.6863H5.23944C5.23037 6.00294 5.22112 6.00219 5.21195 6.00145C5.19102 5.99976 5.17047 5.9981 5.15322 6.00541C5.12592 6.01655 5.08871 6.04253 5.0856 6.06603C5.06105 6.25575 5.04081 6.44548 5.01996 6.64093ZM23.6661 10.5322L23.6719 10.5131C24.0211 9.37628 24.3705 8.23847 24.7209 7.0971L26.3024 7.58012C26.8663 7.75239 27.431 7.92487 27.9999 8.09851C27.9627 8.1603 27.9296 8.21606 27.8978 8.2698L27.8504 8.34963C27.5328 8.88434 27.215 9.4189 26.8972 9.95344L26.893 9.96051C26.3142 10.9342 25.7354 11.9078 25.1576 12.8822C24.7438 13.5793 24.3319 14.2776 23.9238 14.9778C23.8797 15.0533 23.8425 15.0737 23.755 15.0459C23.4448 14.9469 23.1334 14.8524 22.8216 14.7578C22.7164 14.7259 22.6111 14.6939 22.5057 14.6618C22.4925 14.6572 22.4793 14.6523 22.4641 14.6466C22.4539 14.6428 22.4428 14.6387 22.4302 14.6341C22.4235 14.6317 22.4165 14.6292 22.4089 14.6265C22.8282 13.2603 23.2469 11.897 23.6661 10.5322ZM23.4693 16.4351L23.461 16.4585C23.4544 16.4773 23.4485 16.494 23.4414 16.51C23.2224 17.0066 23.0034 17.5027 22.7839 18L20.8596 17.4384L20.8851 17.3786V17.3784C20.9152 17.3076 20.9455 17.2363 20.9769 17.165C21.0339 17.0338 21.0912 16.9026 21.1484 16.7714L21.1495 16.769C21.273 16.4859 21.3966 16.2027 21.5184 15.9193C21.5445 15.8599 21.5662 15.8215 21.6431 15.8518C22.2268 16.0801 22.8229 16.2669 23.4333 16.4116C23.4383 16.4134 23.4433 16.417 23.4502 16.422C23.4553 16.4257 23.4614 16.4301 23.4693 16.4351Z" fill="#FF0027"/>
</g>
<defs>
<filter id="filter0_i" x="5" y="6" width="22.9999" height="12" filterUnits="userSpaceOnUse" color-interpolation-filters="sRGB">
<feFlood flood-opacity="0" result="BackgroundImageFix"/>
<feBlend mode="normal" in="SourceGraphic" in2="BackgroundImageFix" result="shape"/>
<feColorMatrix in="SourceAlpha" type="matrix" values="0 0 0 0 0 0 0 0 0 0 0 0 0 0 0 0 0 0 127 0" result="hardAlpha"/>
<feOffset dx="100" dy="4"/>
<feGaussianBlur stdDeviation="2"/>
<feComposite in2="hardAlpha" operator="arithmetic" k2="-1" k3="1"/>
<feColorMatrix type="matrix" values="0 0 0 0 0.235294 0 0 0 0 0.470588 0 0 0 0 0.494118 0 0 0 1 0"/>
<feBlend mode="normal" in2="shape" result="effect1_innerShadow"/>
</filter>
</defs>
</svg>
